HIERARCHY
ROOT Hips
{
	OFFSET 0.00000 0.00000 0.00000
	CHANNELS 6 Xposition Yposition Zposition Zrotation Yrotation Xrotation 
	JOINT LHipJoint
	{
		OFFSET 0 0 0
		CHANNELS 3 Zrotation Yrotation Xrotation
		JOINT LeftUpLeg
		{
			OFFSET 1.44361 -1.63093 0.70831
			CHANNELS 3 Zrotation Yrotation Xrotation
			JOINT LeftLeg
			{
				OFFSET 2.20103 -6.04728 0.00000
				CHANNELS 3 Zrotation Yrotation Xrotation
				JOINT LeftFoot
				{
					OFFSET 2.54154 -6.98283 0.00000
					CHANNELS 3 Zrotation Yrotation Xrotation
					JOINT LeftToeBase
					{
						OFFSET 0.05971 -0.16406 1.77582
						CHANNELS 3 Zrotation Yrotation Xrotation
						End Site
						{
							OFFSET 0.00000 -0.00000 0.90832
						}
					}
				}
			}
		}
	}
	JOINT RHipJoint
	{
		OFFSET 0 0 0
		CHANNELS 3 Zrotation Yrotation Xrotation
		JOINT RightUpLeg
		{
			OFFSET -1.65838 -1.63093 0.70830
			CHANNELS 3 Zrotation Yrotation Xrotation
			JOINT RightLeg
			{
				OFFSET -2.26926 -6.23475 0.00000
				CHANNELS 3 Zrotation Yrotation Xrotation
				JOINT RightFoot
				{
					OFFSET -2.34808 -6.45129 0.00000
					CHANNELS 3 Zrotation Yrotation Xrotation
					JOINT RightToeBase
					{
						OFFSET -0.18633 -0.51195 1.68539
						CHANNELS 3 Zrotation Yrotation Xrotation
						End Site
						{
							OFFSET -0.00000 -0.00000 0.88927
						}
					}
				}
			}
		}
	}
	JOINT LowerBack
	{
		OFFSET 0 0 0
		CHANNELS 3 Zrotation Yrotation Xrotation
		JOINT Spine
		{
			OFFSET -0.10393 2.01691 0.06920
			CHANNELS 3 Zrotation Yrotation Xrotation
			JOINT Spine1
			{
				OFFSET 0.04092 2.01302 -0.05283
				CHANNELS 3 Zrotation Yrotation Xrotation
				JOINT Neck
				{
					OFFSET 0 0 0
					CHANNELS 3 Zrotation Yrotation Xrotation
					JOINT Neck1
					{
						OFFSET -0.02870 1.58978 -0.03113
						CHANNELS 3 Zrotation Yrotation Xrotation
						JOINT Head
						{
							OFFSET 0.11532 1.54326 -0.29195
							CHANNELS 3 Zrotation Yrotation Xrotation
							End Site
							{
								OFFSET 0.04056 1.59999 -0.09535
							}
						}
					}
				}
				JOINT LeftShoulder
				{
					OFFSET 0 0 0
					CHANNELS 3 Zrotation Yrotation Xrotation
					JOINT LeftArm
					{
						OFFSET 3.30641 1.15764 0.01104
						CHANNELS 3 Zrotation Yrotation Xrotation
						JOINT LeftForeArm
						{
							OFFSET 4.63208 -0.00000 0.00000
							CHANNELS 3 Zrotation Yrotation Xrotation
							JOINT LeftHand
							{
								OFFSET 3.41924 -0.00000 -0.00000
								CHANNELS 3 Zrotation Yrotation Xrotation
								JOINT LeftFingerBase
								{
									OFFSET 0 0 0
									CHANNELS 3 Zrotation Yrotation Xrotation
									JOINT LeftHandIndex1
									{
										OFFSET 0.62537 -0.00000 -0.00000
										CHANNELS 3 Zrotation Yrotation Xrotation
										End Site
										{
											OFFSET 0.50419 -0.00000 -0.00000
										}
									}
								}
								JOINT LThumb
								{
									OFFSET 0 0 0
									CHANNELS 3 Zrotation Yrotation Xrotation
									End Site
									{
										OFFSET 0.51189 -0.00000 0.51189
									}
								}
							}
						}
					}
				}
				JOINT RightShoulder
				{
					OFFSET 0 0 0
					CHANNELS 3 Zrotation Yrotation Xrotation
					JOINT RightArm
					{
						OFFSET -3.78081 1.02180 -0.16609
						CHANNELS 3 Zrotation Yrotation Xrotation
						JOINT RightForeArm
						{
							OFFSET -4.40640 -0.00000 -0.00000
							CHANNELS 3 Zrotation Yrotation Xrotation
							JOINT RightHand
							{
								OFFSET -3.44675 -0.00000 0.00000
								CHANNELS 3 Zrotation Yrotation Xrotation
								JOINT RightFingerBase
								{
									OFFSET 0 0 0
									CHANNELS 3 Zrotation Yrotation Xrotation
									JOINT RightHandIndex1
									{
										OFFSET -0.51367 -0.00000 -0.00000
										CHANNELS 3 Zrotation Yrotation Xrotation
										End Site
										{
											OFFSET -0.41414 -0.00000 -0.00000
										}
									}
								}
								JOINT RThumb
								{
									OFFSET 0 0 0
									CHANNELS 3 Zrotation Yrotation Xrotation
									End Site
									{
										OFFSET -0.42046 -0.00000 0.42046
									}
								}
							}
						}
					}
				}
			}
		}
	}
}
MOTION
Frames: 11
Frame Time: .0083333
8.8970 16.3120 7.1857 184.5500 17.9407 -162.5630 0.0000 0.0000 0.0000 -11.2715 -10.2085 -33.3225 3.2270 11.0537 32.4613 0.5294 5.0374 -16.5090 9.5289 -17.1363 -57.9017 0.0000 0.0000 0.0000 11.1824 7.0704 -2.1836 -19.1601 -19.9831 87.5436 -7.6344 17.6462 58.8610 -1.1788 -6.8909 19.3927 -6.4423 6.6456 -7.9470 0.1178 9.4511 -0.0563 4.6048 4.6008 3.3068 -4.1144 -1.1417 -6.8357 6.9472 -4.6678 24.8117 2.5113 -2.5873 9.1192 0.0000 -0.0000 0.0000 -77.5091 14.5893 23.7614 12.1226 -19.9883 -2.1440 -0.0000 -0.0000 16.1074 33.2036 -19.4409 -12.2888 -7.1250 0.0000 -0.0000 3.1132 7.1364 -2.7065 0.0000 -0.0000 0.0000 80.8792 7.7924 32.6480 -25.0771 36.2827 -8.3355 0.0000 0.0000 3.6999 -18.4022 -42.1790 12.5926 7.1250 -0.0000 -0.0000 29.4581 -71.7453 -19.2388
8.8493 16.3238 7.0162 184.1970 17.2753 -162.7500 0.0000 0.0000 0.0000 -12.2626 -11.0409 -32.3142 3.1969 11.0072 32.3042 0.6249 4.4196 -17.1934 9.3158 -17.0067 -57.1759 0.0000 0.0000 0.0000 11.1027 7.7793 -2.5525 -19.5765 -19.9957 88.7617 -15.0866 36.2744 81.9490 -1.4719 -7.6665 21.7055 -6.3217 6.5987 -8.0500 0.2546 9.3870 0.2797 4.7199 4.5409 3.7195 -4.2128 -1.2911 -6.7362 6.7796 -4.8962 25.0779 2.4486 -2.7319 9.2067 -0.0000 -0.0000 0.0000 -76.9077 14.8519 25.0709 12.5566 -20.6340 -2.2946 -0.0000 -0.0000 17.0448 33.4860 -19.6162 -12.5215 -7.1250 0.0000 -0.0000 3.2641 6.8726 -2.8548 -0.0000 -0.0000 0.0000 80.3484 7.3351 31.4088 -24.2594 35.4373 -7.8564 0.0000 0.0000 4.8290 -17.9108 -41.0578 11.9851 7.1250 -0.0000 -0.0000 27.9856 -70.6547 -17.5750
8.7952 16.3324 6.8451 183.8640 16.5190 -162.7760 0.0000 0.0000 0.0000 -13.3428 -11.8610 -31.3187 3.1382 10.9154 31.9951 0.7283 3.8896 -17.9932 9.0139 -16.8167 -56.1383 0.0000 0.0000 0.0000 10.8645 8.5601 -3.2050 -18.5955 -19.9526 85.8903 -40.9339 48.6871 115.7949 -1.7015 -8.2146 23.3678 -6.1540 6.4621 -8.3890 0.4811 9.2116 0.5618 4.9218 4.4248 4.2140 -4.1055 -1.4396 -6.8972 6.2622 -5.0896 25.5870 2.2293 -2.8717 9.4146 0.0000 -0.0000 0.0000 -76.3320 15.4212 26.6538 13.3016 -21.7275 -2.5639 -0.0000 -0.0000 16.7589 33.7476 -19.5004 -12.5727 -7.1250 0.0000 -0.0000 3.4470 6.9458 -3.0105 0.0000 -0.0000 0.0000 79.6559 6.4044 30.0760 -23.9524 35.1139 -7.6792 0.0000 0.0000 5.4850 -17.9673 -41.0430 12.0208 7.1250 -0.0000 -0.0000 27.8937 -70.6611 -17.5183
8.7482 16.3356 6.6844 183.4180 15.9493 -163.0130 0.0000 0.0000 0.0000 -14.5737 -12.0653 -30.3972 3.0991 10.8537 31.7881 0.7992 3.4141 -18.4592 8.6906 -16.6044 -55.0138 0.0000 0.0000 0.0000 10.8219 9.8973 -3.6083 -16.7988 -19.7525 80.6032 -51.3722 49.0340 159.2138 -1.6981 -8.2066 23.3435 -6.4411 6.2685 -8.5291 0.8884 8.9829 0.8073 5.5165 4.2829 4.4699 -4.1024 -1.5138 -7.0874 5.7834 -5.1973 26.2040 2.0468 -2.9861 9.6650 -0.0000 -0.0000 0.0000 -75.8367 16.3784 28.5083 14.3729 -23.2653 -2.9738 -0.0000 -0.0000 15.0830 33.8734 -19.4547 -12.6031 -7.1250 0.0000 -0.0000 3.5336 6.9696 -3.0847 -0.0000 -0.0000 0.0000 78.8439 5.1577 28.1238 -23.6796 34.8236 -7.5228 0.0000 0.0000 5.3531 -17.7563 -38.5922 11.2960 7.1250 -0.0000 -0.0000 24.3245 -68.4923 -14.0222
8.7109 16.3377 6.5396 183.0100 15.3282 -163.4250 0.0000 0.0000 0.0000 -15.7063 -11.5747 -29.9072 3.1295 10.9018 31.9494 0.8322 2.8078 -18.4682 8.3678 -16.3832 -53.8769 0.0000 0.0000 0.0000 10.9595 11.1882 -4.0535 -15.2198 -19.4431 75.8979 -42.1230 34.5203 -166.7101 -1.5347 -7.8210 22.1718 -6.9538 6.0082 -8.3924 1.4993 8.6630 1.0302 6.4013 4.1010 4.5028 -4.3867 -1.5826 -7.0864 5.4539 -5.2813 26.6750 1.9688 -3.1096 9.8370 -0.0000 0.0000 0.0000 -75.3998 17.2672 30.1998 15.5148 -24.8583 -3.4394 -0.0000 -0.0000 13.0106 33.7093 -19.5777 -12.6014 -7.1250 0.0000 -0.0000 3.4107 6.8659 -2.9839 -0.0000 0.0000 0.0000 77.9933 3.5117 25.6289 -23.5582 34.6936 -7.4536 0.0000 0.0000 4.9337 -15.6196 -42.0369 10.6033 7.1250 -0.0000 -0.0000 32.3753 -70.6861 -20.5269
8.6733 16.3391 6.4031 182.6450 14.2692 -163.8430 0.0000 0.0000 0.0000 -16.8867 -10.8330 -29.6806 3.1751 10.9732 32.1895 0.8387 2.1061 -18.1831 8.1096 -16.1993 -52.9567 0.0000 0.0000 0.0000 11.1188 12.3245 -5.2623 -14.1084 -19.1466 72.5352 -41.6385 33.3136 -165.1596 -0.9441 -6.1885 17.3322 -7.0279 5.6353 -8.0874 1.9665 8.1424 1.1921 6.8651 3.8356 4.5042 -4.6107 -1.6794 -6.9124 5.2570 -5.4197 26.8913 1.9235 -3.2382 9.8901 -0.0000 -0.0000 0.0000 -74.4797 18.0233 31.7946 16.8106 -26.6074 -4.0021 -0.0000 -0.0000 10.9735 32.5317 -19.3640 -11.9416 -7.1250 0.0000 -0.0000 2.6998 7.3715 -2.3338 -0.0000 -0.0000 0.0000 77.6035 1.5216 22.5960 -23.4582 34.5861 -7.3968 0.0000 0.0000 3.8091 -15.1452 -42.8537 10.4307 7.1250 -0.0000 -0.0000 34.4781 -71.1635 -22.3075
8.6339 16.3408 6.2710 182.0770 12.8826 -164.3190 0.0000 0.0000 0.0000 -18.4622 -10.1343 -29.2473 3.1685 10.9630 32.1553 0.8483 1.3171 -17.9239 7.8508 -16.0084 -52.0233 0.0000 0.0000 0.0000 11.1378 13.1283 -6.4006 -13.3548 -18.9066 70.2240 -41.2070 33.3578 -162.5991 -0.5222 -4.6314 12.8602 -7.0052 5.0741 -7.7881 2.3050 7.3666 1.3985 7.1322 3.4371 4.6384 -4.3684 -1.6871 -7.2638 4.5807 -5.3690 27.4045 1.6399 -3.2707 10.1178 0.0000 0.0000 0.0000 -73.3285 18.5472 33.0308 18.1609 -28.3627 -4.6254 -0.0000 -0.0000 9.2980 32.9338 -20.1465 -12.5769 -7.1250 0.0000 -0.0000 2.8340 6.3933 -2.5039 0.0000 0.0000 0.0000 77.4933 -0.5262 19.3497 -23.2093 34.3169 -7.2559 0.0000 0.0000 2.4234 -16.8580 -41.0193 11.2481 7.1250 -0.0000 -0.0000 29.1425 -70.2741 -18.1004
8.5907 16.3431 6.1421 181.3990 11.3973 -164.8430 0.0000 0.0000 0.0000 -20.2369 -9.6743 -28.3510 3.0951 10.8475 31.7672 0.8861 0.2762 -17.8953 7.2256 -15.5189 -49.7224 0.0000 0.0000 0.0000 11.1452 14.2156 -7.6797 -12.7341 -18.6841 68.2977 -41.3065 32.8619 -163.6617 -0.5345 -4.6844 13.0107 -6.9560 4.4220 -7.4246 2.5953 6.4634 1.5824 7.3183 2.9780 4.7514 -4.2115 -1.6506 -7.1991 4.0301 -5.2451 27.5513 1.4311 -3.2700 10.1334 0.0000 -0.0000 0.0000 -72.0936 18.7156 33.8518 19.3326 -29.8299 -5.1953 -0.0000 -0.0000 8.2930 31.9918 -19.5683 -11.8170 -7.1250 0.0000 -0.0000 2.3276 7.2562 -2.0167 0.0000 -0.0000 0.0000 77.5510 -2.6565 15.7385 -22.7848 33.8526 -7.0180 0.0000 0.0000 1.6688 -19.2886 -42.2632 13.2446 7.1250 -0.0000 -0.0000 28.5714 -72.1210 -18.8601
8.5397 16.3407 6.0141 180.8550 9.8763 -165.3880 0.0000 0.0000 0.0000 -21.8255 -9.4227 -26.9872 2.9408 10.5987 30.9380 0.9142 -0.9056 -17.7885 6.2387 -14.6558 -45.9324 0.0000 0.0000 0.0000 11.0570 15.1649 -9.3050 -12.4778 -18.5854 67.4953 -40.9491 32.0926 -162.3348 -0.1404 -2.4146 6.6530 -6.5261 3.8108 -6.8701 2.8165 5.5701 1.6524 7.1938 2.5492 4.6816 -4.1202 -1.6186 -6.8976 3.6799 -5.2044 27.6494 1.2984 -3.3060 10.0968 -0.0000 -0.0000 0.0000 -70.6132 18.6289 34.5904 20.3773 -31.0943 -5.7249 -0.0000 -0.0000 7.7700 32.7025 -20.1841 -12.4910 -7.1250 0.0000 -0.0000 2.6830 6.4029 -2.3697 -0.0000 -0.0000 0.0000 77.9179 -4.9262 11.3564 -22.2607 33.2705 -6.7283 0.0000 0.0000 1.9168 -21.1451 -41.6673 14.4200 7.1250 -0.0000 -0.0000 25.1690 -72.2693 -16.6070
8.4872 16.3313 5.8965 180.3620 8.4656 -165.9090 0.0000 0.0000 0.0000 -23.1255 -9.3587 -25.6458 2.8056 10.3736 30.1952 0.9454 -2.5625 -17.6913 4.5469 -12.8546 -38.8266 0.0000 0.0000 0.0000 10.5958 16.2694 -11.9674 -12.4260 -18.5650 67.3329 -40.9160 32.5136 -161.7605 -0.0549 -1.5120 4.1588 -6.1483 3.1786 -6.3458 3.1109 4.6611 1.7167 7.1835 2.1114 4.6091 -3.9472 -1.5594 -6.9255 3.0874 -5.1087 28.0817 1.0619 -3.3390 10.2367 0.0000 -0.0000 0.0000 -69.3975 18.2394 34.8905 21.2771 -32.1504 -6.1967 -0.0000 -0.0000 7.5409 32.8887 -19.7149 -12.3058 -7.1250 0.0000 -0.0000 2.8724 6.8941 -2.5100 0.0000 -0.0000 0.0000 78.2660 -7.0331 6.3959 -21.4705 32.3734 -6.3000 0.0000 0.0000 3.5040 -22.4338 -40.7446 15.0812 7.1250 -0.0000 -0.0000 21.8975 -71.9154 -14.2181
8.4449 16.3174 5.7965 179.7490 7.3987 -166.3940 0.0000 0.0000 0.0000 -24.2108 -9.4039 -24.5363 2.7371 10.2568 29.8124 0.9046 -2.8591 -17.2375 5.2789 -13.6912 -42.0141 0.0000 0.0000 0.0000 9.7680 17.8455 -14.9572 -12.6434 -18.6496 68.0141 -40.6618 30.3648 -162.2132 -0.0337 1.1848 -3.2573 -6.1872 2.4879 -5.9142 3.4076 3.7149 1.8229 7.4257 1.6365 4.6125 -3.8665 -1.4031 -6.8737 2.5788 -4.8619 28.3742 0.8893 -3.3028 10.3090 -0.0000 0.0000 0.0000 -68.4732 17.5385 34.6279 21.9830 -32.9578 -6.5766 -0.0000 -0.0000 7.0616 33.2789 -19.3653 -12.2783 -7.1250 0.0000 -0.0000 3.1724 7.2060 -2.7537 -0.0000 0.0000 0.0000 78.5703 -8.9249 1.7474 -20.5142 31.2569 -5.7958 0.0000 0.0000 5.4002 -23.0908 -42.5182 16.0736 7.1250 -0.0000 -0.0000 24.3432 -73.6831 -16.7752
